#N canvas 141 23 1237 745 10;
#X floatatom 6 43 5 0 0 0 - - -, f 5;
#X obj 6 60 s SONG_SELECTION;
#N canvas 0 22 450 278 (subpatch) 0;
#X array WAVEFORM_1 82944 float 2;
#X coords 0 1 82944 -1 100 70 2 0 0;
#X restore 8 454 graph;
#X obj 7 23 s START;
#X obj 59 23 s STOP;
#X obj 7 5 bng 15 250 50 0 empty empty empty 17 7 0 10 -262144 -1 -1
;
#X obj 59 5 bng 15 250 50 0 empty empty empty 17 7 0 10 -262144 -1
-1;
#X floatatom 109 42 5 0 0 0 - - -, f 5;
#X obj 109 60 s SONG_TUNING;
#N canvas 0 22 450 278 (subpatch) 0;
#X array WAVEFORM_2 89505 float 2;
#X coords 0 1 89505 -1 100 70 2 0 0;
#X restore 113 454 graph;
#X obj 454 28 loadbang;
#X obj 454 50 delay 100;
#X msg 454 72 \; pd dsp 1;
#N canvas 0 22 450 278 (subpatch) 0;
#X array WAVEFORM_3 89505 float 2;
#X coords 0 1 89505 -1 100 70 2 0 0;
#X restore 218 454 graph;
#N canvas 0 22 450 278 (subpatch) 0;
#X array KICK 17752 float 2;
#X coords 0 1 17752 -1 100 70 2 0 0;
#X restore 7 201 graph;
#N canvas 0 22 450 278 (subpatch) 0;
#X array SNARE 34205 float 2;
#X coords 0 1 34205 -1 100 70 2 0 0;
#X restore 112 201 graph;
#N canvas 0 22 450 278 (subpatch) 0;
#X array PERC1 7167 float 2;
#X coords 0 1 7167 -1 100 70 2 0 0;
#X restore 217 201 graph;
#N canvas 0 22 450 278 (subpatch) 0;
#X array PERC2 17752 float 2;
#X coords 0 1 17752 -1 100 70 2 0 0;
#X restore 322 201 graph;
#N canvas 560 126 1258 618 CHANNEL_2 1;
#X obj 13 265 outlet~;
#X obj 686 8 r SONG_SELECTION;
#X obj 686 50 soundfiler;
#X floatatom 686 70 5 0 0 0 - - -, f 5;
#X obj 14 522 unpack f f;
#X msg 273 460 stop;
#X obj 14 477 cyclone/seq;
#X obj 14 499 cyclone/midiparse;
#X obj 14 546 cyclone/thresh;
#X obj 109 547 cyclone/thresh;
#X obj 223 442 bng 15 250 50 0 empty empty empty 17 7 0 10 -262144
-1 -1;
#X obj 14 431 r SONG_SELECTION;
#X obj 273 439 r STOP;
#X obj 223 421 r START;
#X obj 13 63 mtof;
#X obj 13 85 expr $f2/$f1;
#X floatatom 13 107 5 0 0 0 - - -, f 5;
#X obj 13 126 * 1;
#X obj 13 148 pack f f;
#X obj 13 170 t l b;
#X msg 13 192 \$2 \$1;
#X obj 13 214 vline~;
#X msg 68 197 0;
#X obj 14 566 unpack f;
#X obj 109 566 unpack f;
#X floatatom 97 62 5 0 0 0 - - -, f 5;
#X obj 13 41 r 2_PITCH;
#X obj 13 236 tabread4~ WAVEFORM_2;
#X msg 686 28 read -resize samples/\$1/2.wav WAVEFORM_2;
#X msg 14 455 read midi/\$1/2.mid;
#X obj 14 587 s 2_PITCH;
#X obj 109 587 s 2_VEL;
#X msg 97 116 44100;
#X obj 155 15 loadbang;
#X msg 156 42 6;
#X msg 224 460 start 1050;
#X connect 1 0 28 0;
#X connect 2 0 3 0;
#X connect 4 0 8 0;
#X connect 4 1 9 0;
#X connect 5 0 6 0;
#X connect 6 0 7 0;
#X connect 7 0 4 0;
#X connect 8 0 23 0;
#X connect 9 0 24 0;
#X connect 10 0 35 0;
#X connect 11 0 29 0;
#X connect 12 0 5 0;
#X connect 13 0 10 0;
#X connect 14 0 15 0;
#X connect 15 0 16 0;
#X connect 16 0 17 0;
#X connect 16 0 32 0;
#X connect 17 0 18 0;
#X connect 18 0 19 0;
#X connect 19 0 20 0;
#X connect 19 1 22 0;
#X connect 20 0 21 0;
#X connect 21 0 27 0;
#X connect 22 0 21 0;
#X connect 23 0 30 0;
#X connect 24 0 31 0;
#X connect 25 0 15 1;
#X connect 26 0 14 0;
#X connect 27 0 0 0;
#X connect 28 0 2 0;
#X connect 29 0 6 0;
#X connect 32 0 18 1;
#X connect 32 0 17 1;
#X connect 33 0 34 0;
#X connect 34 0 25 0;
#X connect 35 0 6 0;
#X restore 697 304 pd CHANNEL_2;
#N canvas 402 130 1258 618 CHANNEL_1 1;
#X obj 13 281 outlet~;
#X obj 686 8 r SONG_SELECTION;
#X obj 686 50 soundfiler;
#X floatatom 686 70 5 0 0 0 - - -, f 5;
#X obj 14 522 unpack f f;
#X msg 273 460 stop;
#X obj 14 477 cyclone/seq;
#X obj 14 499 cyclone/midiparse;
#X obj 14 546 cyclone/thresh;
#X obj 109 547 cyclone/thresh;
#X obj 223 442 bng 15 250 50 0 empty empty empty 17 7 0 10 -262144
-1 -1;
#X obj 14 431 r SONG_SELECTION;
#X obj 273 439 r STOP;
#X obj 223 421 r START;
#X obj 13 63 mtof;
#X obj 13 85 expr $f2/$f1;
#X floatatom 13 107 5 0 0 0 - - -, f 5;
#X obj 13 126 * 1;
#X obj 13 148 pack f f;
#X obj 13 170 t l b;
#X msg 13 192 \$2 \$1;
#X obj 13 214 vline~;
#X msg 68 197 0;
#X obj 14 566 unpack f;
#X obj 109 566 unpack f;
#X floatatom 97 62 5 0 0 0 - - -, f 5;
#X msg 97 116 44100;
#X obj 155 15 loadbang;
#X obj 13 236 tabread4~ WAVEFORM_1;
#X obj 13 41 r 1_PITCH;
#X obj 14 587 s 1_PITCH;
#X obj 109 587 s 1_VEL;
#X msg 14 455 read midi/\$1/1.mid;
#X msg 156 42 6;
#X msg 686 28 read -resize samples/\$1/1.wav WAVEFORM_1;
#X msg 224 460 start 1050;
#X connect 1 0 34 0;
#X connect 2 0 3 0;
#X connect 4 0 8 0;
#X connect 4 1 9 0;
#X connect 5 0 6 0;
#X connect 6 0 7 0;
#X connect 7 0 4 0;
#X connect 8 0 23 0;
#X connect 9 0 24 0;
#X connect 10 0 35 0;
#X connect 11 0 32 0;
#X connect 12 0 5 0;
#X connect 13 0 10 0;
#X connect 14 0 15 0;
#X connect 15 0 16 0;
#X connect 16 0 17 0;
#X connect 16 0 26 0;
#X connect 17 0 18 0;
#X connect 18 0 19 0;
#X connect 19 0 20 0;
#X connect 19 1 22 0;
#X connect 20 0 21 0;
#X connect 21 0 28 0;
#X connect 22 0 21 0;
#X connect 23 0 30 0;
#X connect 24 0 31 0;
#X connect 25 0 15 1;
#X connect 26 0 18 1;
#X connect 26 0 17 1;
#X connect 27 0 33 0;
#X connect 28 0 0 0;
#X connect 29 0 14 0;
#X connect 32 0 6 0;
#X connect 33 0 25 0;
#X connect 34 0 2 0;
#X connect 35 0 6 0;
#X restore 615 320 pd CHANNEL_1;
#N canvas 237 107 1258 618 PERCUSSION 1;
#X obj 7 274 outlet~;
#X obj 686 23 r SONG_SELECTION;
#X obj 686 45 soundfiler;
#X floatatom 686 67 5 0 0 0 - - -, f 5;
#X obj 14 475 unpack f f;
#X msg 423 330 stop;
#X obj 14 453 cyclone/seq;
#X obj 14 497 cyclone/midiparse;
#X obj 14 519 cyclone/thresh;
#X obj 106 312 bng 15 250 50 0 empty empty empty 17 7 0 10 -262144
-1 -1;
#X obj 14 431 r SONG_SELECTION;
#X obj 423 308 r STOP;
#X obj 106 290 r START;
#X obj 6 45 mtof;
#X obj 6 67 expr $f2/$f1;
#X floatatom 6 89 5 0 0 0 - - -, f 5;
#X obj 6 108 * 1;
#X obj 6 130 pack f f;
#X obj 6 152 t l b;
#X msg 6 174 \$2 \$1;
#X obj 6 196 vline~;
#X msg 61 174 0;
#X obj 14 541 unpack f;
#X floatatom 75 45 5 0 0 0 - - -, f 5;
#X msg 51 89 44100;
#X obj 75 23 loadbang;
#X msg 75 45 6;
#X obj 6 23 r KICK_PITCH;
#X obj 6 227 tabread4~ KICK;
#X obj 14 563 s KICK_PITCH;
#X msg 14 497 read midi/\$1/perc/kick.mid;
#X msg 686 45 read -resize samples/\$1/perc/kick.wav KICK;
#X obj 199 337 outlet~;
#X obj 115 45 mtof;
#X obj 115 67 expr $f2/$f1;
#X floatatom 115 89 5 0 0 0 - - -, f 5;
#X obj 115 108 * 1;
#X obj 115 130 pack f f;
#X obj 115 152 t l b;
#X msg 115 174 \$2 \$1;
#X obj 115 196 vline~;
#X msg 170 174 0;
#X floatatom 190 33 5 0 0 0 - - -, f 5;
#X msg 160 89 44100;
#X obj 190 11 loadbang;
#X msg 184 45 6;
#X obj 115 23 r SNARE_PITCH;
#X obj 112 216 tabread4~ SNARE;
#X obj 227 196 outlet~;
#X obj 227 45 mtof;
#X obj 227 67 expr $f2/$f1;
#X floatatom 227 89 5 0 0 0 - - -, f 5;
#X obj 227 108 * 1;
#X obj 227 130 pack f f;
#X obj 227 152 t l b;
#X msg 227 174 \$2 \$1;
#X obj 227 196 vline~;
#X msg 282 174 0;
#X floatatom 296 45 5 0 0 0 - - -, f 5;
#X msg 272 89 44100;
#X obj 296 23 loadbang;
#X msg 296 45 6;
#X obj 336 196 outlet~;
#X obj 336 45 mtof;
#X obj 336 67 expr $f2/$f1;
#X floatatom 336 89 5 0 0 0 - - -, f 5;
#X obj 336 108 * 1;
#X obj 336 130 pack f f;
#X obj 336 152 t l b;
#X msg 336 174 \$2 \$1;
#X obj 336 196 vline~;
#X msg 391 174 0;
#X floatatom 405 45 5 0 0 0 - - -, f 5;
#X msg 381 89 44100;
#X obj 405 23 loadbang;
#X msg 405 45 6;
#X obj 227 218 tabread4~ PERC1;
#X obj 336 218 tabread4~ PERC2;
#X obj 227 23 r PERC1_PITCH;
#X obj 336 23 r PERC2_PITCH;
#X obj 205 475 unpack f f;
#X obj 205 453 cyclone/seq;
#X obj 205 490 cyclone/midiparse;
#X obj 205 497 cyclone/thresh;
#X obj 205 431 r SONG_SELECTION;
#X obj 205 519 unpack f;
#X obj 394 475 unpack f f;
#X obj 394 453 cyclone/seq;
#X obj 394 503 cyclone/midiparse;
#X obj 394 497 cyclone/thresh;
#X obj 394 431 r SONG_SELECTION;
#X obj 394 519 unpack f;
#X obj 585 475 unpack f f;
#X obj 585 453 cyclone/seq;
#X obj 585 478 cyclone/midiparse;
#X obj 585 497 cyclone/thresh;
#X obj 585 431 r SONG_SELECTION;
#X obj 585 519 unpack f;
#X obj 686 86 r SONG_SELECTION;
#X obj 686 108 soundfiler;
#X floatatom 686 130 5 0 0 0 - - -, f 5;
#X obj 685 130 r SONG_SELECTION;
#X obj 686 149 soundfiler;
#X floatatom 686 171 5 0 0 0 - - -, f 5;
#X obj 686 190 r SONG_SELECTION;
#X obj 686 212 soundfiler;
#X floatatom 686 234 5 0 0 0 - - -, f 5;
#X msg 685 152 read -resize samples/\$1/perc/perc.wav PERC1;
#X msg 684 218 read -resize samples/\$1/perc/kick.wav PERC2;
#X msg 685 108 read -resize samples/\$1/perc/snare.wav SNARE;
#X msg 205 490 read midi/\$1/perc/snare.mid;
#X msg 394 503 read midi/\$1/perc/perc_1.mid;
#X msg 585 478 read midi/\$1/perc/perc_2.mid;
#X obj 585 541 s PERC2_PITCH;
#X obj 394 541 s PERC1_PITCH;
#X obj 205 541 s SNARE_PITCH;
#X obj 300 534 unpack f;
#X obj 300 556 s SNARE_VEL;
#X obj 159 248 *~;
#X obj 195 267 r SNARE_VEL;
#X obj 195 289 / 127;
#X obj 172 295 *~ 2;
#X obj 6 249 *~ 2;
#X msg 106 334 start 1050;
#X connect 1 0 31 0;
#X connect 2 0 3 0;
#X connect 4 0 8 0;
#X connect 5 0 6 0;
#X connect 5 0 81 0;
#X connect 5 0 87 0;
#X connect 5 0 93 0;
#X connect 6 0 7 0;
#X connect 7 0 4 0;
#X connect 8 0 22 0;
#X connect 9 0 123 0;
#X connect 10 0 30 0;
#X connect 11 0 5 0;
#X connect 12 0 9 0;
#X connect 13 0 14 0;
#X connect 14 0 15 0;
#X connect 15 0 16 0;
#X connect 15 0 24 0;
#X connect 16 0 17 0;
#X connect 17 0 18 0;
#X connect 18 0 19 0;
#X connect 18 1 21 0;
#X connect 19 0 20 0;
#X connect 20 0 28 0;
#X connect 21 0 20 0;
#X connect 22 0 29 0;
#X connect 23 0 14 1;
#X connect 24 0 17 1;
#X connect 24 0 16 1;
#X connect 25 0 26 0;
#X connect 26 0 23 0;
#X connect 27 0 13 0;
#X connect 28 0 122 0;
#X connect 30 0 6 0;
#X connect 31 0 2 0;
#X connect 33 0 34 0;
#X connect 34 0 35 0;
#X connect 35 0 36 0;
#X connect 35 0 43 0;
#X connect 36 0 37 0;
#X connect 37 0 38 0;
#X connect 38 0 39 0;
#X connect 38 1 41 0;
#X connect 39 0 40 0;
#X connect 40 0 47 0;
#X connect 41 0 40 0;
#X connect 42 0 34 1;
#X connect 43 0 37 1;
#X connect 43 0 36 1;
#X connect 44 0 45 0;
#X connect 45 0 42 0;
#X connect 46 0 33 0;
#X connect 47 0 118 0;
#X connect 49 0 50 0;
#X connect 50 0 51 0;
#X connect 51 0 52 0;
#X connect 51 0 59 0;
#X connect 52 0 53 0;
#X connect 53 0 54 0;
#X connect 54 0 55 0;
#X connect 54 1 57 0;
#X connect 55 0 56 0;
#X connect 56 0 76 0;
#X connect 57 0 56 0;
#X connect 58 0 50 1;
#X connect 59 0 53 1;
#X connect 59 0 52 1;
#X connect 60 0 61 0;
#X connect 61 0 58 0;
#X connect 63 0 64 0;
#X connect 64 0 65 0;
#X connect 65 0 66 0;
#X connect 65 0 73 0;
#X connect 66 0 67 0;
#X connect 67 0 68 0;
#X connect 68 0 69 0;
#X connect 68 1 71 0;
#X connect 69 0 70 0;
#X connect 70 0 77 0;
#X connect 71 0 70 0;
#X connect 72 0 64 1;
#X connect 73 0 67 1;
#X connect 73 0 66 1;
#X connect 74 0 75 0;
#X connect 75 0 72 0;
#X connect 76 0 48 0;
#X connect 77 0 62 0;
#X connect 78 0 49 0;
#X connect 79 0 63 0;
#X connect 80 0 83 0;
#X connect 80 1 116 0;
#X connect 81 0 82 0;
#X connect 82 0 80 0;
#X connect 83 0 85 0;
#X connect 84 0 110 0;
#X connect 85 0 115 0;
#X connect 86 0 89 0;
#X connect 87 0 88 0;
#X connect 88 0 86 0;
#X connect 89 0 91 0;
#X connect 90 0 111 0;
#X connect 91 0 114 0;
#X connect 92 0 95 0;
#X connect 93 0 94 0;
#X connect 94 0 92 0;
#X connect 95 0 97 0;
#X connect 96 0 112 0;
#X connect 97 0 113 0;
#X connect 98 0 109 0;
#X connect 99 0 100 0;
#X connect 101 0 107 0;
#X connect 102 0 103 0;
#X connect 104 0 108 0;
#X connect 105 0 106 0;
#X connect 107 0 102 0;
#X connect 108 0 105 0;
#X connect 109 0 99 0;
#X connect 110 0 81 0;
#X connect 111 0 87 0;
#X connect 112 0 93 0;
#X connect 116 0 117 0;
#X connect 118 0 121 0;
#X connect 119 0 120 0;
#X connect 120 0 118 1;
#X connect 121 0 32 0;
#X connect 122 0 0 0;
#X connect 123 0 6 0;
#X connect 123 0 81 0;
#X connect 123 0 87 0;
#X connect 123 0 93 0;
#X restore 337 531 pd PERCUSSION;
#X obj 465 450 dac~;
#X obj 534 462 dac~;
#X obj 458 664 *~;
#X obj 486 534 vsl 15 128 0 1 0 0 empty empty empty 0 -9 0 10 -262144
-1 -1 12700 1;
#X obj 458 686 dac~;
#X obj 702 506 *~;
#X obj 730 376 vsl 15 128 0 1 0 0 empty empty empty 0 -9 0 10 -262144
-1 -1 12700 1;
#X obj 702 528 dac~;
#X obj 617 500 *~;
#X obj 645 370 vsl 15 128 0 1 0 0 empty empty empty 0 -9 0 10 -262144
-1 -1 12700 1;
#X obj 617 522 dac~;
#X obj 731 136 loadbang;
#X obj 731 158 delay 3000;
#X msg 731 180 1;
#X obj 801 513 *~;
#X obj 829 383 vsl 15 128 0 1 0 0 empty empty empty 0 -9 0 10 -262144
-1 -1 12700 1;
#X obj 801 535 dac~;
#N canvas 257 126 1258 618 CHANNEL_3 1;
#X obj 13 265 outlet~;
#X obj 686 8 r SONG_SELECTION;
#X obj 686 50 soundfiler;
#X floatatom 686 70 5 0 0 0 - - -, f 5;
#X obj 14 522 unpack f f;
#X msg 273 460 stop;
#X obj 14 477 cyclone/seq;
#X obj 14 499 cyclone/midiparse;
#X obj 14 546 cyclone/thresh;
#X obj 109 547 cyclone/thresh;
#X obj 223 442 bng 15 250 50 0 empty empty empty 17 7 0 10 -262144
-1 -1;
#X obj 14 431 r SONG_SELECTION;
#X obj 273 439 r STOP;
#X obj 223 421 r START;
#X obj 13 63 mtof;
#X obj 13 85 expr $f2/$f1;
#X floatatom 13 107 5 0 0 0 - - -, f 5;
#X obj 13 126 * 1;
#X obj 13 148 pack f f;
#X obj 13 170 t l b;
#X msg 13 192 \$2 \$1;
#X obj 13 214 vline~;
#X msg 68 197 0;
#X obj 14 566 unpack f;
#X obj 109 566 unpack f;
#X floatatom 97 62 5 0 0 0 - - -, f 5;
#X msg 97 116 44100;
#X obj 155 15 loadbang;
#X msg 156 42 6;
#X obj 13 41 r 3_PITCH;
#X obj 13 236 tabread4~ WAVEFORM_3;
#X obj 14 587 s 3_PITCH;
#X obj 109 587 s 3_VEL;
#X msg 14 455 read midi/\$1/3.mid;
#X msg 686 28 read -resize samples/\$1/3.wav WAVEFORM_3;
#X msg 224 460 start 1050;
#X connect 1 0 34 0;
#X connect 2 0 3 0;
#X connect 4 0 8 0;
#X connect 4 1 9 0;
#X connect 5 0 6 0;
#X connect 6 0 7 0;
#X connect 7 0 4 0;
#X connect 8 0 23 0;
#X connect 9 0 24 0;
#X connect 10 0 35 0;
#X connect 11 0 33 0;
#X connect 12 0 5 0;
#X connect 13 0 10 0;
#X connect 14 0 15 0;
#X connect 15 0 16 0;
#X connect 16 0 17 0;
#X connect 16 0 26 0;
#X connect 17 0 18 0;
#X connect 18 0 19 0;
#X connect 19 0 20 0;
#X connect 19 1 22 0;
#X connect 20 0 21 0;
#X connect 21 0 30 0;
#X connect 22 0 21 0;
#X connect 23 0 31 0;
#X connect 24 0 32 0;
#X connect 25 0 15 1;
#X connect 26 0 18 1;
#X connect 26 0 17 1;
#X connect 27 0 28 0;
#X connect 28 0 25 0;
#X connect 29 0 14 0;
#X connect 30 0 0 0;
#X connect 33 0 6 0;
#X connect 34 0 2 0;
#X connect 35 0 6 0;
#X restore 796 311 pd CHANNEL_3;
#X obj 280 56 loadbang;
#X obj 280 78 delay 200;
#X msg 280 100 1;
#X obj 211 23 loadbang;
#X obj 211 45 delay 4000;
#X msg 211 67 1;
#X connect 0 0 1 0;
#X connect 5 0 3 0;
#X connect 6 0 4 0;
#X connect 7 0 8 0;
#X connect 10 0 11 0;
#X connect 11 0 12 0;
#X connect 18 0 26 0;
#X connect 19 0 29 0;
#X connect 20 0 23 0;
#X connect 20 1 23 0;
#X connect 20 2 23 0;
#X connect 20 3 23 0;
#X connect 23 0 25 0;
#X connect 24 0 23 1;
#X connect 26 0 28 0;
#X connect 27 0 26 1;
#X connect 29 0 31 0;
#X connect 30 0 29 1;
#X connect 32 0 33 0;
#X connect 33 0 34 0;
#X connect 34 0 30 0;
#X connect 34 0 27 0;
#X connect 34 0 36 0;
#X connect 34 0 24 0;
#X connect 35 0 37 0;
#X connect 36 0 35 1;
#X connect 38 0 35 0;
#X connect 39 0 40 0;
#X connect 40 0 41 0;
#X connect 41 0 0 0;
#X connect 42 0 43 0;
#X connect 43 0 44 0;
#X connect 44 0 5 0;
